<?xml version="1.0" encoding="UTF-8"?>
<!--Generator: Apple Native CoreSVG 123-->
<!DOCTYPE svg
PUBLIC "-//W3C//DTD SVG 1.1//EN"
       "http://www.w3.org/Graphics/SVG/1.1/DTD/svg11.dtd">
<svg version="1.1" xmlns="http://www.w3.org/2000/svg" xmlns:xlink="http://www.w3.org/1999/xlink" width="3300" height="2200">
 <!--glyph: "uni100297.medium", point size: 100.000000, font version: "Version 15.0d7e11", template writer version: "5"-->
 <g id="Notes">
  <rect height="2200" id="artboard" style="fill:white;opacity:1" width="3300" x="0" y="0"/>
  <line id="" style="fill:none;stroke:black;opacity:1;stroke-width:0.5;" x1="263" x2="3036" y1="292" y2="292"/>
  <text style="stroke:none;fill:black;font-family:-apple-system,&quot;SF Pro Display&quot;,&quot;SF Pro Text&quot;,Helvetica,sans-serif;font-weight:bold;" transform="matrix(1 0 0 1 263 322)">Weight/Scale Variations</text>
  <text style="stroke:none;fill:black;font-family:-apple-system,&quot;SF Pro Display&quot;,&quot;SF Pro Text&quot;,Helvetica,sans-serif;text-anchor:middle;" transform="matrix(1 0 0 1 559.711 322)">Ultralight</text>
  <text style="stroke:none;fill:black;font-family:-apple-system,&quot;SF Pro Display&quot;,&quot;SF Pro Text&quot;,Helvetica,sans-serif;text-anchor:middle;" transform="matrix(1 0 0 1 856.422 322)">Thin</text>
  <text style="stroke:none;fill:black;font-family:-apple-system,&quot;SF Pro Display&quot;,&quot;SF Pro Text&quot;,Helvetica,sans-serif;text-anchor:middle;" transform="matrix(1 0 0 1 1153.13 322)">Light</text>
  <text style="stroke:none;fill:black;font-family:-apple-system,&quot;SF Pro Display&quot;,&quot;SF Pro Text&quot;,Helvetica,sans-serif;text-anchor:middle;" transform="matrix(1 0 0 1 1449.84 322)">Regular</text>
  <text style="stroke:none;fill:black;font-family:-apple-system,&quot;SF Pro Display&quot;,&quot;SF Pro Text&quot;,Helvetica,sans-serif;text-anchor:middle;" transform="matrix(1 0 0 1 1746.56 322)">Medium</text>
  <text style="stroke:none;fill:black;font-family:-apple-system,&quot;SF Pro Display&quot;,&quot;SF Pro Text&quot;,Helvetica,sans-serif;text-anchor:middle;" transform="matrix(1 0 0 1 2043.27 322)">Semibold</text>
  <text style="stroke:none;fill:black;font-family:-apple-system,&quot;SF Pro Display&quot;,&quot;SF Pro Text&quot;,Helvetica,sans-serif;text-anchor:middle;" transform="matrix(1 0 0 1 2339.98 322)">Bold</text>
  <text style="stroke:none;fill:black;font-family:-apple-system,&quot;SF Pro Display&quot;,&quot;SF Pro Text&quot;,Helvetica,sans-serif;text-anchor:middle;" transform="matrix(1 0 0 1 2636.69 322)">Heavy</text>
  <text style="stroke:none;fill:black;font-family:-apple-system,&quot;SF Pro Display&quot;,&quot;SF Pro Text&quot;,Helvetica,sans-serif;text-anchor:middle;" transform="matrix(1 0 0 1 2933.4 322)">Black</text>
  <line id="" style="fill:none;stroke:black;opacity:1;stroke-width:0.5;" x1="263" x2="3036" y1="1903" y2="1903"/>
  <g id="" transform="matrix(1 0 0 1 263 1933)">
   <path d="M 9.24805 0.830078 C 13.5547 0.830078 17.1387 -2.74414 17.1387 -7.05078 C 17.1387 -11.3574 13.5449 -14.9316 9.23828 -14.9316 C 4.94141 -14.9316 1.36719 -11.3574 1.36719 -7.05078 C 1.36719 -2.74414 4.95117 0.830078 9.24805 0.830078 Z M 9.24805 -0.654297 C 5.70312 -0.654297 2.87109 -3.49609 2.87109 -7.05078 C 2.87109 -10.6055 5.69336 -13.4473 9.23828 -13.4473 C 12.793 -13.4473 15.6348 -10.6055 15.6445 -7.05078 C 15.6543 -3.49609 12.8027 -0.654297 9.24805 -0.654297 Z M 9.22852 -3.42773 C 9.69727 -3.42773 9.9707 -3.74023 9.9707 -4.25781 L 9.9707 -6.31836 L 12.1973 -6.31836 C 12.6953 -6.31836 13.0371 -6.57227 13.0371 -7.04102 C 13.0371 -7.51953 12.7148 -7.7832 12.1973 -7.7832 L 9.9707 -7.7832 L 9.9707 -10.0098 C 9.9707 -10.5273 9.69727 -10.8496 9.22852 -10.8496 C 8.75977 -10.8496 8.50586 -10.5078 8.50586 -10.0098 L 8.50586 -7.7832 L 6.29883 -7.7832 C 5.78125 -7.7832 5.44922 -7.51953 5.44922 -7.04102 C 5.44922 -6.57227 5.80078 -6.31836 6.29883 -6.31836 L 8.50586 -6.31836 L 8.50586 -4.25781 C 8.50586 -3.75977 8.75977 -3.42773 9.22852 -3.42773 Z"/>
  </g>
  <g id="" transform="matrix(1 0 0 1 281.506 1933)">
   <path d="M 11.709 2.91016 C 17.1582 2.91016 21.6699 -1.60156 21.6699 -7.05078 C 21.6699 -12.4902 17.1484 -17.0117 11.6992 -17.0117 C 6.25977 -17.0117 1.74805 -12.4902 1.74805 -7.05078 C 1.74805 -1.60156 6.26953 2.91016 11.709 2.91016 Z M 11.709 1.25 C 7.09961 1.25 3.41797 -2.44141 3.41797 -7.05078 C 3.41797 -11.6504 7.08984 -15.3516 11.6992 -15.3516 C 16.3086 -15.3516 20 -11.6504 20.0098 -7.05078 C 20.0195 -2.44141 16.3184 1.25 11.709 1.25 Z M 11.6895 -2.41211 C 12.207 -2.41211 12.5195 -2.77344 12.5195 -3.33984 L 12.5195 -6.23047 L 15.5762 -6.23047 C 16.123 -6.23047 16.5039 -6.51367 16.5039 -7.03125 C 16.5039 -7.55859 16.1426 -7.86133 15.5762 -7.86133 L 12.5195 -7.86133 L 12.5195 -10.9277 C 12.5195 -11.5039 12.207 -11.8555 11.6895 -11.8555 C 11.1719 -11.8555 10.8789 -11.4844 10.8789 -10.9277 L 10.8789 -7.86133 L 7.83203 -7.86133 C 7.26562 -7.86133 6.89453 -7.55859 6.89453 -7.03125 C 6.89453 -6.51367 7.28516 -6.23047 7.83203 -6.23047 L 10.8789 -6.23047 L 10.8789 -3.33984 C 10.8789 -2.79297 11.1719 -2.41211 11.6895 -2.41211 Z"/>
  </g>
  <g id="" transform="matrix(1 0 0 1 304.924 1933)">
   <path d="M 14.9707 5.67383 C 21.9336 5.67383 27.6953 -0.078125 27.6953 -7.04102 C 27.6953 -14.0039 21.9238 -19.7559 14.9609 -19.7559 C 8.00781 -19.7559 2.25586 -14.0039 2.25586 -7.04102 C 2.25586 -0.078125 8.01758 5.67383 14.9707 5.67383 Z M 14.9707 3.85742 C 8.93555 3.85742 4.08203 -1.00586 4.08203 -7.04102 C 4.08203 -13.0762 8.92578 -17.9395 14.9609 -17.9395 C 21.0059 -17.9395 25.8594 -13.0762 25.8691 -7.04102 C 25.8789 -1.00586 21.0156 3.85742 14.9707 3.85742 Z M 14.9512 -1.06445 C 15.5176 -1.06445 15.8691 -1.45508 15.8691 -2.06055 L 15.8691 -6.13281 L 20.1074 -6.13281 C 20.6934 -6.13281 21.1133 -6.46484 21.1133 -7.02148 C 21.1133 -7.59766 20.7227 -7.93945 20.1074 -7.93945 L 15.8691 -7.93945 L 15.8691 -12.1875 C 15.8691 -12.8027 15.5176 -13.1934 14.9512 -13.1934 C 14.3848 -13.1934 14.0625 -12.7832 14.0625 -12.1875 L 14.0625 -7.93945 L 9.83398 -7.93945 C 9.21875 -7.93945 8.80859 -7.59766 8.80859 -7.02148 C 8.80859 -6.46484 9.23828 -6.13281 9.83398 -6.13281 L 14.0625 -6.13281 L 14.0625 -2.06055 C 14.0625 -1.47461 14.3848 -1.06445 14.9512 -1.06445 Z"/>
  </g>
  <text style="stroke:none;fill:black;font-family:-apple-system,&quot;SF Pro Display&quot;,&quot;SF Pro Text&quot;,Helvetica,sans-serif;font-weight:bold;" transform="matrix(1 0 0 1 263 1953)">Design Variations</text>
  <text style="stroke:none;fill:black;font-family:-apple-system,&quot;SF Pro Display&quot;,&quot;SF Pro Text&quot;,Helvetica,sans-serif;" transform="matrix(1 0 0 1 263 1971)">Symbols are supported in up to nine weights and three scales.</text>
  <text style="stroke:none;fill:black;font-family:-apple-system,&quot;SF Pro Display&quot;,&quot;SF Pro Text&quot;,Helvetica,sans-serif;" transform="matrix(1 0 0 1 263 1989)">For optimal layout with text and other symbols, vertically align</text>
  <text style="stroke:none;fill:black;font-family:-apple-system,&quot;SF Pro Display&quot;,&quot;SF Pro Text&quot;,Helvetica,sans-serif;" transform="matrix(1 0 0 1 263 2007)">symbols with the adjacent text.</text>
  <rect height="14" id="" style="fill:#00AEEF;stroke:none;opacity:0.4;" width="3" x="776" y="1919"/>
  <g id="" transform="matrix(1 0 0 1 779 1933)">
   <path d="M 10.5273 0 L 12.373 0 L 7.17773 -14.0918 L 5.43945 -14.0918 L 0.244141 0 L 2.08984 0 L 3.50586 -4.0332 L 9.11133 -4.0332 Z M 6.2793 -11.9531 L 6.33789 -11.9531 L 8.59375 -5.52734 L 4.02344 -5.52734 Z"/>
  </g>
  <rect height="14" id="" style="fill:#00AEEF;stroke:none;opacity:0.4;" width="3" x="791.617" y="1919"/>
  <text style="stroke:none;fill:black;font-family:-apple-system,&quot;SF Pro Display&quot;,&quot;SF Pro Text&quot;,Helvetica,sans-serif;font-weight:bold;" transform="matrix(1 0 0 1 776 1953)">Margins</text>
  <text style="stroke:none;fill:black;font-family:-apple-system,&quot;SF Pro Display&quot;,&quot;SF Pro Text&quot;,Helvetica,sans-serif;" transform="matrix(1 0 0 1 776 1971)">Leading and trailing margins on the left and right side of each symbol</text>
  <text style="stroke:none;fill:black;font-family:-apple-system,&quot;SF Pro Display&quot;,&quot;SF Pro Text&quot;,Helvetica,sans-serif;" transform="matrix(1 0 0 1 776 1989)">can be adjusted by modifying the width of the blue rectangles.</text>
  <text style="stroke:none;fill:black;font-family:-apple-system,&quot;SF Pro Display&quot;,&quot;SF Pro Text&quot;,Helvetica,sans-serif;" transform="matrix(1 0 0 1 776 2007)">Modifications are automatically applied proportionally to all</text>
  <text style="stroke:none;fill:black;font-family:-apple-system,&quot;SF Pro Display&quot;,&quot;SF Pro Text&quot;,Helvetica,sans-serif;" transform="matrix(1 0 0 1 776 2025)">scales and weights.</text>
  <g id="" transform="matrix(1 0 0 1 1289 1933)">
   <path d="M 2.83203 3.11523 L 4.375 4.6582 C 5.22461 5.48828 6.19141 5.41992 7.06055 4.46289 L 17.2754 -6.66016 C 17.7051 -6.36719 18.0957 -6.37695 18.5645 -6.47461 L 19.6094 -6.68945 L 20.3027 -5.99609 L 20.2539 -5.47852 C 20.1855 -4.95117 20.3516 -4.53125 20.8496 -4.0332 L 21.6602 -3.22266 C 22.168 -2.71484 22.8223 -2.68555 23.3008 -3.16406 L 26.5527 -6.41602 C 27.0312 -6.89453 27.0117 -7.54883 26.5039 -8.05664 L 25.6836 -8.87695 C 25.1855 -9.375 24.7754 -9.55078 24.2383 -9.47266 L 23.7109 -9.41406 L 23.0566 -10.0781 L 23.3398 -11.2207 C 23.4863 -11.7871 23.3398 -12.2559 22.7148 -12.8613 L 20.3027 -15.2539 C 16.7578 -18.7793 12.2266 -18.6719 9.11133 -15.5371 C 8.69141 -15.1074 8.64258 -14.5215 8.91602 -14.0918 C 9.15039 -13.7207 9.62891 -13.4961 10.2734 -13.6621 C 11.7871 -14.043 13.3008 -13.9258 14.7852 -12.9199 L 14.1602 -11.3379 C 13.9258 -10.752 13.9453 -10.2734 14.1797 -9.83398 L 3.01758 0.439453 C 2.08008 1.30859 1.97266 2.25586 2.83203 3.11523 Z M 10.6738 -15.1465 C 13.3398 -17.1387 16.6504 -16.8262 19.0527 -14.4141 L 21.6797 -11.8066 C 21.9141 -11.5723 21.9434 -11.3867 21.8848 -11.0938 L 21.5039 -9.53125 L 23.0762 -7.95898 L 24.043 -8.04688 C 24.3262 -8.07617 24.4141 -8.05664 24.6387 -7.83203 L 25.2637 -7.20703 L 22.5098 -4.46289 L 21.8848 -5.07812 C 21.6602 -5.30273 21.6406 -5.40039 21.6699 -5.68359 L 21.7578 -6.64062 L 20.1953 -8.20312 L 18.5742 -7.89062 C 18.291 -7.83203 18.1445 -7.83203 17.9102 -8.07617 L 15.7324 -10.2539 C 15.5078 -10.4883 15.4785 -10.625 15.6055 -10.9473 L 16.5527 -13.2227 C 14.9512 -14.7559 12.8418 -15.6055 10.8008 -14.9512 C 10.7129 -14.9219 10.6445 -14.9414 10.6152 -14.9805 C 10.5859 -15.0293 10.5859 -15.0781 10.6738 -15.1465 Z M 4.10156 2.41211 C 3.61328 1.91406 3.78906 1.61133 4.12109 1.30859 L 15.0781 -8.80859 L 16.3086 -7.57812 L 6.15234 3.34961 C 5.84961 3.68164 5.46875 3.7793 5.06836 3.37891 Z"/>
  </g>
  <text style="stroke:none;fill:black;font-family:-apple-system,&quot;SF Pro Display&quot;,&quot;SF Pro Text&quot;,Helvetica,sans-serif;font-weight:bold;" transform="matrix(1 0 0 1 1289 1953)">Exporting</text>
  <text style="stroke:none;fill:black;font-family:-apple-system,&quot;SF Pro Display&quot;,&quot;SF Pro Text&quot;,Helvetica,sans-serif;" transform="matrix(1 0 0 1 1289 1971)">Symbols should be outlined when exporting to ensure the</text>
  <text style="stroke:none;fill:black;font-family:-apple-system,&quot;SF Pro Display&quot;,&quot;SF Pro Text&quot;,Helvetica,sans-serif;" transform="matrix(1 0 0 1 1289 1989)">design is preserved when submitting to Xcode.</text>
  <text id="template-version" style="stroke:none;fill:black;font-family:-apple-system,&quot;SF Pro Display&quot;,&quot;SF Pro Text&quot;,Helvetica,sans-serif;text-anchor:end;" transform="matrix(1 0 0 1 3036 1933)">Template v.1.0</text>
  <text style="stroke:none;fill:black;font-family:-apple-system,&quot;SF Pro Display&quot;,&quot;SF Pro Text&quot;,Helvetica,sans-serif;text-anchor:end;" transform="matrix(1 0 0 1 3036 1951)">Generated from pause.circle</text>
  <text style="stroke:none;fill:black;font-family:-apple-system,&quot;SF Pro Display&quot;,&quot;SF Pro Text&quot;,Helvetica,sans-serif;text-anchor:end;" transform="matrix(1 0 0 1 3036 1969)">Typeset at 100 points</text>
  <text style="stroke:none;fill:black;font-family:-apple-system,&quot;SF Pro Display&quot;,&quot;SF Pro Text&quot;,Helvetica,sans-serif;" transform="matrix(1 0 0 1 263 726)">Small</text>
  <text style="stroke:none;fill:black;font-family:-apple-system,&quot;SF Pro Display&quot;,&quot;SF Pro Text&quot;,Helvetica,sans-serif;" transform="matrix(1 0 0 1 263 1156)">Medium</text>
  <text style="stroke:none;fill:black;font-family:-apple-system,&quot;SF Pro Display&quot;,&quot;SF Pro Text&quot;,Helvetica,sans-serif;" transform="matrix(1 0 0 1 263 1586)">Large</text>
 </g>
 <g id="Guides">
  <g id="H-reference" style="fill:#27AAE1;stroke:none;" transform="matrix(1 0 0 1 339 696)">
   <path d="M 54.9316 0 L 57.666 0 L 30.5664 -70.459 L 28.0762 -70.459 L 0.976562 0 L 3.66211 0 L 12.9395 -24.4629 L 45.7031 -24.4629 Z M 29.1992 -67.0898 L 29.4434 -67.0898 L 44.8242 -26.709 L 13.8184 -26.709 Z"/>
  </g>
  <line id="Baseline-S" style="fill:none;stroke:#27AAE1;opacity:1;stroke-width:0.577;" x1="263" x2="3036" y1="696" y2="696"/>
  <line id="Capline-S" style="fill:none;stroke:#27AAE1;opacity:1;stroke-width:0.577;" x1="263" x2="3036" y1="625.541" y2="625.541"/>
  <g id="H-reference" style="fill:#27AAE1;stroke:none;" transform="matrix(1 0 0 1 339 1126)">
   <path d="M 54.9316 0 L 57.666 0 L 30.5664 -70.459 L 28.0762 -70.459 L 0.976562 0 L 3.66211 0 L 12.9395 -24.4629 L 45.7031 -24.4629 Z M 29.1992 -67.0898 L 29.4434 -67.0898 L 44.8242 -26.709 L 13.8184 -26.709 Z"/>
  </g>
  <line id="Baseline-M" style="fill:none;stroke:#27AAE1;opacity:1;stroke-width:0.577;" x1="263" x2="3036" y1="1126" y2="1126"/>
  <line id="Capline-M" style="fill:none;stroke:#27AAE1;opacity:1;stroke-width:0.577;" x1="263" x2="3036" y1="1055.54" y2="1055.54"/>
  <g id="H-reference" style="fill:#27AAE1;stroke:none;" transform="matrix(1 0 0 1 339 1556)">
   <path d="M 54.9316 0 L 57.666 0 L 30.5664 -70.459 L 28.0762 -70.459 L 0.976562 0 L 3.66211 0 L 12.9395 -24.4629 L 45.7031 -24.4629 Z M 29.1992 -67.0898 L 29.4434 -67.0898 L 44.8242 -26.709 L 13.8184 -26.709 Z"/>
  </g>
  <line id="Baseline-L" style="fill:none;stroke:#27AAE1;opacity:1;stroke-width:0.577;" x1="263" x2="3036" y1="1556" y2="1556"/>
  <line id="Capline-L" style="fill:none;stroke:#27AAE1;opacity:1;stroke-width:0.577;" x1="263" x2="3036" y1="1485.54" y2="1485.54"/>
  <rect height="119.336" id="left-margin" style="fill:#00AEEF;stroke:none;opacity:0.4;" width="8.74023" x="1391.3" y="1030.79"/>
  <rect height="119.336" id="right-margin" style="fill:#00AEEF;stroke:none;opacity:0.4;" width="8.74023" x="1499.65" y="1030.79"/>
 </g>
 <g id="Symbols">
  <g id="Black-L" transform="matrix(1 0 0 1 2854.05 1556)">
   <path d="M 79.3457 32.8613 C 116.748 32.8613 147.412 2.19727 147.412 -35.2051 C 147.412 -72.6074 116.748 -103.271 79.2969 -103.271 C 41.8945 -103.271 11.2793 -72.6074 11.2793 -35.2051 C 11.2793 2.19727 41.9434 32.8613 79.3457 32.8613 Z M 79.3457 12.4023 C 52.9785 12.4023 31.7383 -8.83789 31.7383 -35.2051 C 31.7383 -61.5723 52.9297 -82.8125 79.2969 -82.8125 C 105.664 -82.8125 126.953 -61.5723 126.953 -35.2051 C 127.002 -8.83789 105.713 12.4023 79.3457 12.4023 Z M 60.8398 -11.377 L 68.0176 -11.377 C 71.3867 -11.377 73.2422 -13.3789 73.2422 -16.4062 L 73.2422 -54.1016 C 73.2422 -57.1289 71.3867 -59.1309 68.0176 -59.1309 L 60.8398 -59.1309 C 57.4707 -59.1309 55.6152 -57.1289 55.6152 -54.1016 L 55.6152 -16.4062 C 55.6152 -13.3789 57.4707 -11.377 60.8398 -11.377 Z M 90.6738 -11.377 L 97.8027 -11.377 C 101.172 -11.377 103.027 -13.3789 103.027 -16.4062 L 103.027 -54.1016 C 103.027 -57.1289 101.172 -59.1309 97.8027 -59.1309 L 90.6738 -59.1309 C 87.3047 -59.1309 85.4004 -57.1289 85.4004 -54.1016 L 85.4004 -16.4062 C 85.4004 -13.3789 87.3047 -11.377 90.6738 -11.377 Z"/>
  </g>
  <g id="Heavy-L" transform="matrix(1 0 0 1 2558.39 1556)">
   <path d="M 78.2715 31.7871 C 115.088 31.7871 145.312 1.61133 145.312 -35.2051 C 145.312 -72.0215 115.039 -102.197 78.2715 -102.197 C 41.4551 -102.197 11.2793 -72.0215 11.2793 -35.2051 C 11.2793 1.61133 41.5039 31.7871 78.2715 31.7871 Z M 78.2715 14.0137 C 51.0254 14.0137 29.0527 -7.95898 29.0527 -35.2051 C 29.0527 -62.5 50.9766 -84.4727 78.2715 -84.4727 C 105.518 -84.4727 127.49 -62.5 127.539 -35.2051 C 127.539 -7.95898 105.566 14.0137 78.2715 14.0137 Z M 60.1074 -11.377 L 66.9922 -11.377 C 70.2637 -11.377 72.0215 -13.2812 72.0215 -16.1133 L 72.0215 -54.3457 C 72.0215 -57.1777 70.2637 -59.082 66.9922 -59.082 L 60.1074 -59.082 C 56.8359 -59.082 55.0781 -57.1777 55.0781 -54.3457 L 55.0781 -16.1133 C 55.0781 -13.2812 56.8359 -11.377 60.1074 -11.377 Z M 89.5508 -11.377 L 96.4355 -11.377 C 99.707 -11.377 101.416 -13.2812 101.416 -16.1133 L 101.416 -54.3457 C 101.416 -57.1777 99.707 -59.082 96.4355 -59.082 L 89.5508 -59.082 C 86.2793 -59.082 84.5215 -57.1777 84.5215 -54.3457 L 84.5215 -16.1133 C 84.5215 -13.2812 86.2793 -11.377 89.5508 -11.377 Z"/>
  </g>
  <g id="Bold-L" transform="matrix(1 0 0 1 2262.88 1556)">
   <path d="M 77.0996 30.6152 C 113.232 30.6152 142.92 0.878906 142.92 -35.2051 C 142.92 -71.3379 113.184 -101.025 77.0508 -101.025 C 40.9668 -101.025 11.2793 -71.3379 11.2793 -35.2051 C 11.2793 0.878906 41.0156 30.6152 77.0996 30.6152 Z M 77.0996 15.8691 C 48.8281 15.8691 26.0742 -6.93359 26.0742 -35.2051 C 26.0742 -63.4766 48.7793 -86.2793 77.0508 -86.2793 C 105.371 -86.2793 128.125 -63.4766 128.174 -35.2051 C 128.174 -6.93359 105.371 15.8691 77.0996 15.8691 Z M 59.2773 -11.377 L 65.8691 -11.377 C 69.043 -11.377 70.6055 -13.1348 70.6055 -15.8203 L 70.6055 -54.5898 C 70.6055 -57.2266 69.043 -59.0332 65.8691 -59.0332 L 59.2773 -59.0332 C 56.1035 -59.0332 54.541 -57.2266 54.541 -54.5898 L 54.541 -15.8203 C 54.541 -13.1348 56.1035 -11.377 59.2773 -11.377 Z M 88.2812 -11.377 L 94.9219 -11.377 C 98.0469 -11.377 99.6582 -13.1348 99.6582 -15.8203 L 99.6582 -54.5898 C 99.6582 -57.2266 98.0469 -59.0332 94.9219 -59.0332 L 88.2812 -59.0332 C 85.2051 -59.0332 83.5449 -57.2266 83.5449 -54.5898 L 83.5449 -15.8203 C 83.5449 -13.1348 85.2051 -11.377 88.2812 -11.377 Z"/>
  </g>
  <g id="Semibold-L" transform="matrix(1 0 0 1 1966.97 1556)">
   <path d="M 76.2695 29.7852 C 111.914 29.7852 141.309 0.439453 141.309 -35.2051 C 141.309 -70.8496 111.865 -100.244 76.2695 -100.244 C 40.625 -100.244 11.2793 -70.8496 11.2793 -35.2051 C 11.2793 0.439453 40.6738 29.7852 76.2695 29.7852 Z M 76.2695 17.0898 C 47.3145 17.0898 24.0234 -6.25 24.0234 -35.2051 C 24.0234 -64.209 47.2656 -87.5 76.2695 -87.5 C 105.225 -87.5 128.564 -64.209 128.613 -35.2051 C 128.662 -6.25 105.273 17.0898 76.2695 17.0898 Z M 58.6914 -11.377 L 65.1367 -11.377 C 68.1641 -11.377 69.6777 -13.0859 69.6777 -15.625 L 69.6777 -54.7363 C 69.6777 -57.2754 68.1641 -58.9844 65.1367 -58.9844 L 58.6914 -58.9844 C 55.6152 -58.9844 54.1016 -57.2754 54.1016 -54.7363 L 54.1016 -15.625 C 54.1016 -13.0859 55.6152 -11.377 58.6914 -11.377 Z M 87.4512 -11.377 L 93.8477 -11.377 C 96.875 -11.377 98.3887 -13.0859 98.3887 -15.625 L 98.3887 -54.7363 C 98.3887 -57.2754 96.875 -58.9844 93.8477 -58.9844 L 87.4512 -58.9844 C 84.4238 -58.9844 82.8613 -57.2754 82.8613 -54.7363 L 82.8613 -15.625 C 82.8613 -13.0859 84.4238 -11.377 87.4512 -11.377 Z"/>
  </g>
  <g id="Medium-L" transform="matrix(1 0 0 1 1670.87 1556)">
   <path d="M 75.6836 29.1992 C 110.938 29.1992 140.088 0.0488281 140.088 -35.2051 C 140.088 -70.459 110.889 -99.6094 75.6348 -99.6094 C 40.3809 -99.6094 11.2793 -70.459 11.2793 -35.2051 C 11.2793 0.0488281 40.3809 29.1992 75.6836 29.1992 Z M 75.6836 18.0664 C 46.1426 18.0664 22.4609 -5.71289 22.4609 -35.2051 C 22.4609 -64.6973 46.1426 -88.4766 75.6348 -88.4766 C 105.127 -88.4766 128.906 -64.6973 128.906 -35.2051 C 128.955 -5.71289 105.176 18.0664 75.6836 18.0664 Z M 58.252 -11.377 L 64.5508 -11.377 C 67.5293 -11.377 68.9453 -13.0371 68.9453 -15.4785 L 68.9453 -54.8828 C 68.9453 -57.3242 67.5293 -58.9355 64.5508 -58.9355 L 58.252 -58.9355 C 55.2734 -58.9355 53.8086 -57.3242 53.8086 -54.8828 L 53.8086 -15.4785 C 53.8086 -13.0371 55.2734 -11.377 58.252 -11.377 Z M 86.7676 -11.377 L 93.0664 -11.377 C 95.9961 -11.377 97.4609 -13.0371 97.4609 -15.4785 L 97.4609 -54.8828 C 97.4609 -57.3242 95.9961 -58.9355 93.0664 -58.9355 L 86.7676 -58.9355 C 83.8379 -58.9355 82.373 -57.3242 82.373 -54.8828 L 82.373 -15.4785 C 82.373 -13.0371 83.8379 -11.377 86.7676 -11.377 Z"/>
  </g>
  <g id="Regular-L" transform="matrix(1 0 0 1 1374.97 1556)">
   <path d="M 74.8535 28.3691 C 109.668 28.3691 138.477 -0.390625 138.477 -35.2051 C 138.477 -70.0195 109.619 -98.7793 74.8047 -98.7793 C 40.0391 -98.7793 11.2793 -70.0195 11.2793 -35.2051 C 11.2793 -0.390625 40.0879 28.3691 74.8535 28.3691 Z M 74.8535 19.2871 C 44.6777 19.2871 20.4102 -5.0293 20.4102 -35.2051 C 20.4102 -65.3809 44.6289 -89.6973 74.8047 -89.6973 C 105.029 -89.6973 129.297 -65.3809 129.346 -35.2051 C 129.395 -5.0293 105.078 19.2871 74.8535 19.2871 Z M 57.666 -11.377 L 63.7695 -11.377 C 66.6504 -11.377 67.9688 -12.9395 67.9688 -15.2344 L 67.9688 -55.0293 C 67.9688 -57.373 66.6504 -58.9355 63.7695 -58.9355 L 57.666 -58.9355 C 54.7852 -58.9355 53.418 -57.373 53.418 -55.0293 L 53.418 -15.2344 C 53.418 -12.9395 54.7852 -11.377 57.666 -11.377 Z M 85.9375 -11.377 L 92.041 -11.377 C 94.873 -11.377 96.2402 -12.9395 96.2402 -15.2344 L 96.2402 -55.0293 C 96.2402 -57.373 94.873 -58.9355 92.041 -58.9355 L 85.9375 -58.9355 C 83.0566 -58.9355 81.6895 -57.373 81.6895 -55.0293 L 81.6895 -15.2344 C 81.6895 -12.9395 83.0566 -11.377 85.9375 -11.377 Z"/>
  </g>
  <g id="Light-L" transform="matrix(1 0 0 1 1079.18 1556)">
   <path d="M 73.9258 27.4902 C 108.301 27.4902 136.621 -0.830078 136.621 -35.1562 C 136.621 -69.5312 108.252 -97.8516 73.9258 -97.8516 C 39.5508 -97.8516 11.2793 -69.5312 11.2793 -35.1562 C 11.2793 -0.830078 39.5996 27.4902 73.9258 27.4902 Z M 73.9258 20.6055 C 43.1152 20.6055 18.2129 -4.3457 18.2129 -35.1562 C 18.2129 -66.0156 43.0664 -90.918 73.9258 -90.918 C 104.736 -90.918 129.688 -66.0156 129.736 -35.1562 C 129.736 -4.3457 104.785 20.6055 73.9258 20.6055 Z M 56.8848 -11.377 L 63.0859 -11.377 C 65.8203 -11.377 67.0898 -12.8906 67.0898 -15.0879 L 67.0898 -55.0293 C 67.0898 -57.2266 65.8203 -58.7402 63.0859 -58.7402 L 56.8848 -58.7402 C 54.1504 -58.7402 52.832 -57.2266 52.832 -55.0293 L 52.832 -15.0879 C 52.832 -12.8906 54.1504 -11.377 56.8848 -11.377 Z M 84.7656 -11.377 L 90.9668 -11.377 C 93.6523 -11.377 94.9707 -12.8906 94.9707 -15.0879 L 94.9707 -55.0293 C 94.9707 -57.2266 93.6523 -58.7402 90.9668 -58.7402 L 84.7656 -58.7402 C 82.0801 -58.7402 80.7617 -57.2266 80.7617 -55.0293 L 80.7617 -15.0879 C 80.7617 -12.8906 82.0801 -11.377 84.7656 -11.377 Z"/>
  </g>
  <g id="Thin-L" transform="matrix(1 0 0 1 783.693 1556)">
   <path d="M 72.7051 26.3184 C 106.494 26.3184 134.18 -1.36719 134.18 -35.1074 C 134.18 -68.8965 106.494 -96.582 72.7051 -96.582 C 38.9648 -96.582 11.2793 -68.8965 11.2793 -35.1074 C 11.2793 -1.36719 38.9648 26.3184 72.7051 26.3184 Z M 72.7051 22.3145 C 41.0156 22.3145 15.2832 -3.41797 15.2832 -35.1074 C 15.2832 -66.8457 41.0156 -92.5781 72.7051 -92.5781 C 104.395 -92.5781 130.176 -66.8457 130.176 -35.1074 C 130.176 -3.41797 104.443 22.3145 72.7051 22.3145 Z M 55.8105 -11.377 L 62.207 -11.377 C 64.7461 -11.377 65.8691 -12.793 65.8691 -14.8438 L 65.8691 -55.0293 C 65.8691 -57.0801 64.7461 -58.4961 62.207 -58.4961 L 55.8105 -58.4961 C 53.3203 -58.4961 52.0996 -57.0801 52.0996 -55.0293 L 52.0996 -14.8438 C 52.0996 -12.793 53.3203 -11.377 55.8105 -11.377 Z M 83.2031 -11.377 L 89.5996 -11.377 C 92.041 -11.377 93.2617 -12.793 93.2617 -14.8438 L 93.2617 -55.0293 C 93.2617 -57.0801 92.041 -58.4961 89.5996 -58.4961 L 83.2031 -58.4961 C 80.7129 -58.4961 79.541 -57.0801 79.541 -55.0293 L 79.541 -14.8438 C 79.541 -12.793 80.7129 -11.377 83.2031 -11.377 Z"/>
  </g>
  <g id="Ultralight-L" transform="matrix(1 0 0 1 487.616 1556)">
   <path d="M 72.1191 25.7324 C 105.566 25.7324 132.91 -1.61133 132.91 -35.1074 C 132.91 -68.5547 105.566 -95.8984 72.1191 -95.8984 C 38.623 -95.8984 11.2793 -68.5547 11.2793 -35.1074 C 11.2793 -1.61133 38.623 25.7324 72.1191 25.7324 Z M 72.1191 23.2422 C 39.9414 23.2422 13.7695 -2.97852 13.7695 -35.1074 C 13.7695 -67.2363 39.9414 -93.4082 72.1191 -93.4082 C 104.248 -93.4082 130.42 -67.2363 130.42 -35.1074 C 130.42 -2.97852 104.248 23.2422 72.1191 23.2422 Z M 55.2246 -11.377 L 61.7188 -11.377 C 64.1602 -11.377 65.2832 -12.7441 65.2832 -14.6973 L 65.2832 -55.0293 C 65.2832 -57.0312 64.1602 -58.3496 61.7188 -58.3496 L 55.2246 -58.3496 C 52.8809 -58.3496 51.709 -57.0312 51.709 -55.0293 L 51.709 -14.6973 C 51.709 -12.7441 52.8809 -11.377 55.2246 -11.377 Z M 82.373 -11.377 L 88.8672 -11.377 C 91.2109 -11.377 92.4316 -12.7441 92.4316 -14.6973 L 92.4316 -55.0293 C 92.4316 -57.0312 91.2109 -58.3496 88.8672 -58.3496 L 82.373 -58.3496 C 80.0293 -58.3496 78.9551 -57.0312 78.9551 -55.0293 L 78.9551 -14.6973 C 78.9551 -12.7441 80.0293 -11.377 82.373 -11.377 Z"/>
  </g>
  <g id="Black-M" transform="matrix(1 0 0 1 2870.97 1126)">
   <path d="M 62.4023 18.457 C 91.9922 18.457 116.113 -5.61523 116.113 -35.2051 C 116.113 -64.7949 91.9922 -88.8672 62.4023 -88.8672 C 32.8125 -88.8672 8.74023 -64.7949 8.74023 -35.2051 C 8.74023 -5.61523 32.8125 18.457 62.4023 18.457 Z M 62.4023 0.195312 C 42.8711 0.195312 27.002 -15.625 27.002 -35.2051 C 27.002 -54.7363 42.8711 -70.6055 62.4023 -70.6055 C 81.9824 -70.6055 97.8027 -54.7363 97.8027 -35.2051 C 97.8027 -15.625 81.9824 0.195312 62.4023 0.195312 Z M 47.7539 -16.748 L 53.7109 -16.748 C 56.3965 -16.748 57.959 -18.3594 57.959 -20.8984 L 57.959 -49.5605 C 57.959 -52.0996 56.3965 -53.7109 53.7109 -53.7109 L 47.7539 -53.7109 C 45.0684 -53.7109 43.5059 -52.0996 43.5059 -49.5605 L 43.5059 -20.8984 C 43.5059 -18.3594 45.0684 -16.748 47.7539 -16.748 Z M 71.1426 -16.748 L 77.0996 -16.748 C 79.7852 -16.748 81.3477 -18.3594 81.3477 -20.8984 L 81.3477 -49.5605 C 81.3477 -52.0996 79.7852 -53.7109 77.0996 -53.7109 L 71.1426 -53.7109 C 68.457 -53.7109 66.8945 -52.0996 66.8945 -49.5605 L 66.8945 -20.8984 C 66.8945 -18.3594 68.457 -16.748 71.1426 -16.748 Z"/>
  </g>
  <g id="Heavy-M" transform="matrix(1 0 0 1 2575.19 1126)">
   <path d="M 61.5234 17.5781 C 90.5273 17.5781 114.258 -6.15234 114.258 -35.2051 C 114.258 -64.2578 90.5273 -87.9883 61.4746 -87.9883 C 32.4707 -87.9883 8.74023 -64.2578 8.74023 -35.2051 C 8.74023 -6.15234 32.4707 17.5781 61.5234 17.5781 Z M 61.5234 1.66016 C 41.1133 1.66016 24.6582 -14.8438 24.6582 -35.2051 C 24.6582 -55.5664 41.1133 -72.0703 61.4746 -72.0703 C 81.8848 -72.0703 98.3398 -55.5664 98.3398 -35.2051 C 98.3398 -14.8438 81.8848 1.66016 61.5234 1.66016 Z M 47.1191 -16.748 L 52.7832 -16.748 C 55.3711 -16.748 56.8359 -18.3105 56.8359 -20.6543 L 56.8359 -49.8047 C 56.8359 -52.1484 55.3711 -53.7109 52.7832 -53.7109 L 47.1191 -53.7109 C 44.5312 -53.7109 43.0664 -52.1484 43.0664 -49.8047 L 43.0664 -20.6543 C 43.0664 -18.3105 44.5312 -16.748 47.1191 -16.748 Z M 70.2148 -16.748 L 75.8789 -16.748 C 78.4668 -16.748 79.9316 -18.3105 79.9316 -20.6543 L 79.9316 -49.8047 C 79.9316 -52.1484 78.4668 -53.7109 75.8789 -53.7109 L 70.2148 -53.7109 C 67.627 -53.7109 66.1621 -52.1484 66.1621 -49.8047 L 66.1621 -20.6543 C 66.1621 -18.3105 67.627 -16.748 70.2148 -16.748 Z"/>
  </g>
  <g id="Bold-M" transform="matrix(1 0 0 1 2279.5 1126)">
   <path d="M 60.498 16.5039 C 88.8672 16.5039 112.207 -6.78711 112.207 -35.2051 C 112.207 -63.623 88.8672 -86.9629 60.4492 -86.9629 C 32.0312 -86.9629 8.74023 -63.623 8.74023 -35.2051 C 8.74023 -6.78711 32.0801 16.5039 60.498 16.5039 Z M 60.498 3.22266 C 39.1602 3.22266 22.0703 -13.916 22.0703 -35.2051 C 22.0703 -56.4941 39.1602 -73.6816 60.4492 -73.6816 C 81.7383 -73.6816 98.9258 -56.4941 98.9258 -35.2051 C 98.9746 -13.916 81.7871 3.22266 60.498 3.22266 Z M 46.4355 -16.748 L 51.7578 -16.748 C 54.248 -16.748 55.5664 -18.2129 55.5664 -20.3613 L 55.5664 -50.0977 C 55.5664 -52.2461 54.248 -53.7109 51.7578 -53.7109 L 46.4355 -53.7109 C 43.9453 -53.7109 42.627 -52.2461 42.627 -50.0977 L 42.627 -20.3613 C 42.627 -18.2129 43.9453 -16.748 46.4355 -16.748 Z M 69.1895 -16.748 L 74.5117 -16.748 C 77.002 -16.748 78.3203 -18.2129 78.3203 -20.3613 L 78.3203 -50.0977 C 78.3203 -52.2461 77.002 -53.7109 74.5117 -53.7109 L 69.1895 -53.7109 C 66.6992 -53.7109 65.3809 -52.2461 65.3809 -50.0977 L 65.3809 -20.3613 C 65.3809 -18.2129 66.6992 -16.748 69.1895 -16.748 Z"/>
  </g>
  <g id="Semibold-M" transform="matrix(1 0 0 1 1983.5 1126)">
   <path d="M 59.7656 15.8203 C 87.7441 15.8203 110.791 -7.22656 110.791 -35.2051 C 110.791 -63.1836 87.6953 -86.2793 59.7656 -86.2793 C 31.7871 -86.2793 8.74023 -63.1836 8.74023 -35.2051 C 8.74023 -7.22656 31.7871 15.8203 59.7656 15.8203 Z M 59.7656 4.3457 C 37.8418 4.3457 20.2637 -13.2812 20.2637 -35.2051 C 20.2637 -57.1289 37.793 -74.8047 59.7656 -74.8047 C 81.6895 -74.8047 99.3164 -57.1289 99.3652 -35.2051 C 99.3652 -13.2812 81.6895 4.3457 59.7656 4.3457 Z M 45.9961 -16.748 L 51.0254 -16.748 C 53.4668 -16.748 54.6875 -18.1152 54.6875 -20.166 L 54.6875 -50.2441 C 54.6875 -52.3438 53.4668 -53.7109 51.0254 -53.7109 L 45.9961 -53.7109 C 43.5059 -53.7109 42.2852 -52.3438 42.2852 -50.2441 L 42.2852 -20.166 C 42.2852 -18.1152 43.5059 -16.748 45.9961 -16.748 Z M 68.5059 -16.748 L 73.584 -16.748 C 75.9766 -16.748 77.2461 -18.1152 77.2461 -20.166 L 77.2461 -50.2441 C 77.2461 -52.3438 75.9766 -53.7109 73.584 -53.7109 L 68.5059 -53.7109 C 66.0645 -53.7109 64.7949 -52.3438 64.7949 -50.2441 L 64.7949 -20.166 C 64.7949 -18.1152 66.0645 -16.748 68.5059 -16.748 Z"/>
  </g>
  <g id="Medium-M" transform="matrix(1 0 0 1 1687.3 1126)">
   <path d="M 59.2285 15.2832 C 86.9141 15.2832 109.766 -7.56836 109.766 -35.2051 C 109.766 -62.8906 86.8652 -85.7422 59.1797 -85.7422 C 31.543 -85.7422 8.74023 -62.8906 8.74023 -35.2051 C 8.74023 -7.56836 31.5918 15.2832 59.2285 15.2832 Z M 59.2285 5.17578 C 36.8164 5.17578 18.8965 -12.8418 18.8965 -35.2051 C 18.8965 -57.6172 36.8164 -75.6348 59.1797 -75.6348 C 81.5918 -75.6348 99.6094 -57.6172 99.6582 -35.2051 C 99.707 -12.8418 81.6406 5.17578 59.2285 5.17578 Z M 45.6055 -16.748 L 50.4883 -16.748 C 52.8809 -16.748 54.0527 -18.0664 54.0527 -20.0195 L 54.0527 -50.3906 C 54.0527 -52.3926 52.8809 -53.7109 50.4883 -53.7109 L 45.6055 -53.7109 C 43.2129 -53.7109 42.041 -52.3926 42.041 -50.3906 L 42.041 -20.0195 C 42.041 -18.0664 43.2129 -16.748 45.6055 -16.748 Z M 67.9688 -16.748 L 72.8516 -16.748 C 75.2441 -16.748 76.3672 -18.0664 76.3672 -20.0195 L 76.3672 -50.3906 C 76.3672 -52.3926 75.2441 -53.7109 72.8516 -53.7109 L 67.9688 -53.7109 C 65.5762 -53.7109 64.4043 -52.3926 64.4043 -50.3906 L 64.4043 -20.0195 C 64.4043 -18.0664 65.5762 -16.748 67.9688 -16.748 Z"/>
  </g>
  <g id="Regular-M" transform="matrix(1 0 0 1 1391.3 1126)">
   <path d="M 58.5449 14.5508 C 85.791 14.5508 108.35 -8.00781 108.35 -35.2539 C 108.35 -62.4512 85.7422 -85.0586 58.4961 -85.0586 C 31.2988 -85.0586 8.74023 -62.4512 8.74023 -35.2539 C 8.74023 -8.00781 31.3477 14.5508 58.5449 14.5508 Z M 58.5449 6.25 C 35.498 6.25 17.0898 -12.207 17.0898 -35.2539 C 17.0898 -58.252 35.4492 -76.7578 58.4961 -76.7578 C 81.543 -76.7578 100 -58.252 100.049 -35.2539 C 100.098 -12.207 81.5918 6.25 58.5449 6.25 Z M 45.166 -16.748 L 49.8047 -16.748 C 52.1484 -16.748 53.2227 -18.0176 53.2227 -19.873 L 53.2227 -50.5859 C 53.2227 -52.4414 52.1484 -53.7109 49.8047 -53.7109 L 45.166 -53.7109 C 42.8223 -53.7109 41.748 -52.4414 41.748 -50.5859 L 41.748 -19.873 C 41.748 -18.0176 42.8223 -16.748 45.166 -16.748 Z M 67.2852 -16.748 L 71.9238 -16.748 C 74.2188 -16.748 75.293 -18.0176 75.293 -19.873 L 75.293 -50.5859 C 75.293 -52.4414 74.2188 -53.7109 71.9238 -53.7109 L 67.2852 -53.7109 C 64.9414 -53.7109 63.8672 -52.4414 63.8672 -50.5859 L 63.8672 -19.873 C 63.8672 -18.0176 64.9414 -16.748 67.2852 -16.748 Z"/>
  </g>
  <g id="Light-M" transform="matrix(1 0 0 1 1095.42 1126)">
   <path d="M 57.7148 13.7695 C 84.5215 13.7695 106.689 -8.39844 106.689 -35.2051 C 106.689 -62.0117 84.5215 -84.1797 57.666 -84.1797 C 30.8594 -84.1797 8.74023 -62.0117 8.74023 -35.2051 C 8.74023 -8.39844 30.9082 13.7695 57.7148 13.7695 Z M 57.7148 7.4707 C 34.082 7.4707 15.0879 -11.5723 15.0879 -35.2051 C 15.0879 -58.8379 34.082 -77.832 57.666 -77.832 C 81.2988 -77.832 100.342 -58.8379 100.391 -35.2051 C 100.391 -11.5723 81.3477 7.4707 57.7148 7.4707 Z M 44.4336 -16.748 L 49.2188 -16.748 C 51.3672 -16.748 52.3926 -17.9199 52.3926 -19.6777 L 52.3926 -50.5859 C 52.3926 -52.3438 51.3672 -53.5156 49.2188 -53.5156 L 44.4336 -53.5156 C 42.2363 -53.5156 41.2109 -52.3438 41.2109 -50.5859 L 41.2109 -19.6777 C 41.2109 -17.9199 42.2363 -16.748 44.4336 -16.748 Z M 66.2109 -16.748 L 70.9473 -16.748 C 73.1445 -16.748 74.1699 -17.9199 74.1699 -19.6777 L 74.1699 -50.5859 C 74.1699 -52.3438 73.1445 -53.5156 70.9473 -53.5156 L 66.2109 -53.5156 C 64.0625 -53.5156 63.0371 -52.3438 63.0371 -50.5859 L 63.0371 -19.6777 C 63.0371 -17.9199 64.0625 -16.748 66.2109 -16.748 Z"/>
  </g>
  <g id="Thin-M" transform="matrix(1 0 0 1 799.806 1126)">
   <path d="M 56.6406 12.7441 C 82.9102 12.7441 104.492 -8.83789 104.492 -35.1562 C 104.492 -61.4746 82.9102 -83.0566 56.5918 -83.0566 C 30.3223 -83.0566 8.74023 -61.4746 8.74023 -35.1562 C 8.74023 -8.83789 30.3223 12.7441 56.6406 12.7441 Z M 56.6406 8.98438 C 32.2266 8.98438 12.4512 -10.791 12.4512 -35.1562 C 12.4512 -59.5215 32.2266 -79.2969 56.5918 -79.2969 C 81.0059 -79.2969 100.781 -59.5215 100.781 -35.1562 C 100.781 -10.791 81.0059 8.98438 56.6406 8.98438 Z M 43.457 -16.748 L 48.3887 -16.748 C 50.3906 -16.748 51.3184 -17.8711 51.3184 -19.4824 L 51.3184 -50.5859 C 51.3184 -52.1973 50.3906 -53.3203 48.3887 -53.3203 L 43.457 -53.3203 C 41.5039 -53.3203 40.5273 -52.1973 40.5273 -50.5859 L 40.5273 -19.4824 C 40.5273 -17.8711 41.5039 -16.748 43.457 -16.748 Z M 64.7949 -16.748 L 69.7266 -16.748 C 71.6797 -16.748 72.6562 -17.8711 72.6562 -19.4824 L 72.6562 -50.5859 C 72.6562 -52.1973 71.6797 -53.3203 69.7266 -53.3203 L 64.7949 -53.3203 C 62.8418 -53.3203 61.9141 -52.1973 61.9141 -50.5859 L 61.9141 -19.4824 C 61.9141 -17.8711 62.8418 -16.748 64.7949 -16.748 Z"/>
  </g>
  <g id="Ultralight-M" transform="matrix(1 0 0 1 503.656 1126)">
   <path d="M 56.0547 12.207 C 82.0801 12.207 103.369 -9.08203 103.369 -35.1562 C 103.369 -61.1816 82.0801 -82.4707 56.0547 -82.4707 C 30.0293 -82.4707 8.74023 -61.1816 8.74023 -35.1562 C 8.74023 -9.08203 30.0293 12.207 56.0547 12.207 Z M 56.0547 9.81445 C 31.2988 9.81445 11.1328 -10.3516 11.1328 -35.1562 C 11.1328 -59.9121 31.2988 -80.0781 56.0547 -80.0781 C 80.8594 -80.0781 100.977 -59.9121 100.977 -35.1562 C 100.977 -10.3516 80.8594 9.81445 56.0547 9.81445 Z M 42.9688 -16.748 L 47.9492 -16.748 C 49.9023 -16.748 50.7812 -17.8223 50.7812 -19.3359 L 50.7812 -50.5859 C 50.7812 -52.1484 49.9023 -53.2227 47.9492 -53.2227 L 42.9688 -53.2227 C 41.1133 -53.2227 40.1855 -52.1484 40.1855 -50.5859 L 40.1855 -19.3359 C 40.1855 -17.8223 41.1133 -16.748 42.9688 -16.748 Z M 64.1113 -16.748 L 69.0918 -16.748 C 70.9473 -16.748 71.875 -17.8223 71.875 -19.3359 L 71.875 -50.5859 C 71.875 -52.1484 70.9473 -53.2227 69.0918 -53.2227 L 64.1113 -53.2227 C 62.207 -53.2227 61.377 -52.1484 61.377 -50.5859 L 61.377 -19.3359 C 61.377 -17.8223 62.207 -16.748 64.1113 -16.748 Z"/>
  </g>
  <g id="Black-S" transform="matrix(1 0 0 1 2884.57 696)">
   <path d="M 48.8281 6.78711 C 71.9727 6.78711 90.8203 -12.0605 90.8203 -35.2051 C 90.8203 -58.3496 71.9727 -77.1973 48.8281 -77.1973 C 25.6836 -77.1973 6.83594 -58.3496 6.83594 -35.2051 C 6.83594 -12.0605 25.6836 6.78711 48.8281 6.78711 Z M 48.8281 -7.37305 C 33.4473 -7.37305 20.9961 -19.8242 20.9961 -35.2051 C 20.9961 -50.5859 33.4473 -63.0371 48.8281 -63.0371 C 64.209 -63.0371 76.6602 -50.5859 76.6602 -35.2051 C 76.6602 -19.8242 64.209 -7.37305 48.8281 -7.37305 Z M 37.3535 -20.752 L 41.9922 -20.752 C 44.0918 -20.752 45.3125 -22.0215 45.3125 -23.9746 L 45.3125 -46.4844 C 45.3125 -48.4375 44.0918 -49.707 41.9922 -49.707 L 37.3535 -49.707 C 35.2539 -49.707 34.0332 -48.4375 34.0332 -46.4844 L 34.0332 -23.9746 C 34.0332 -22.0215 35.2539 -20.752 37.3535 -20.752 Z M 55.6641 -20.752 L 60.3027 -20.752 C 62.4023 -20.752 63.623 -22.0215 63.623 -23.9746 L 63.623 -46.4844 C 63.623 -48.4375 62.4023 -49.707 60.3027 -49.707 L 55.6641 -49.707 C 53.5645 -49.707 52.3438 -48.4375 52.3438 -46.4844 L 52.3438 -23.9746 C 52.3438 -22.0215 53.5645 -20.752 55.6641 -20.752 Z"/>
  </g>
  <g id="Heavy-S" transform="matrix(1 0 0 1 2588.47 696)">
   <path d="M 48.2422 6.15234 C 70.9961 6.15234 89.5996 -12.4512 89.5996 -35.2051 C 89.5996 -57.959 70.9961 -76.6113 48.1934 -76.6113 C 25.4395 -76.6113 6.83594 -57.959 6.83594 -35.2051 C 6.83594 -12.4512 25.4395 6.15234 48.2422 6.15234 Z M 48.2422 -6.39648 C 32.2754 -6.39648 19.4336 -19.2871 19.4336 -35.2051 C 19.4336 -51.1719 32.2754 -64.0137 48.1934 -64.0137 C 64.1602 -64.0137 77.002 -51.1719 77.0508 -35.2051 C 77.0508 -19.2871 64.1602 -6.39648 48.2422 -6.39648 Z M 36.9629 -20.752 L 41.3574 -20.752 C 43.4082 -20.752 44.5312 -21.9727 44.5312 -23.8281 L 44.5312 -46.6797 C 44.5312 -48.5352 43.4082 -49.707 41.3574 -49.707 L 36.9629 -49.707 C 34.9121 -49.707 33.7891 -48.5352 33.7891 -46.6797 L 33.7891 -23.8281 C 33.7891 -21.9727 34.9121 -20.752 36.9629 -20.752 Z M 55.0781 -20.752 L 59.4727 -20.752 C 61.5234 -20.752 62.6465 -21.9727 62.6465 -23.8281 L 62.6465 -46.6797 C 62.6465 -48.5352 61.5234 -49.707 59.4727 -49.707 L 55.0781 -49.707 C 53.0273 -49.707 51.9043 -48.5352 51.9043 -46.6797 L 51.9043 -23.8281 C 51.9043 -21.9727 53.0273 -20.752 55.0781 -20.752 Z"/>
  </g>
  <g id="Bold-S" transform="matrix(1 0 0 1 2292.44 696)">
   <path d="M 47.5586 5.46875 C 69.873 5.46875 88.2324 -12.8906 88.2324 -35.2051 C 88.2324 -57.5684 69.873 -75.9277 47.5098 -75.9277 C 25.1953 -75.9277 6.83594 -57.5684 6.83594 -35.2051 C 6.83594 -12.8906 25.1953 5.46875 47.5586 5.46875 Z M 47.5586 -5.32227 C 30.957 -5.32227 17.6758 -18.6523 17.6758 -35.2051 C 17.6758 -51.8066 30.957 -65.1367 47.5098 -65.1367 C 64.1113 -65.1367 77.4414 -51.8066 77.4414 -35.2051 C 77.4414 -18.6523 64.1113 -5.32227 47.5586 -5.32227 Z M 36.5234 -20.752 L 40.6738 -20.752 C 42.627 -20.752 43.7012 -21.875 43.7012 -23.6328 L 43.7012 -46.875 C 43.7012 -48.584 42.627 -49.7559 40.6738 -49.7559 L 36.5234 -49.7559 C 34.5215 -49.7559 33.4961 -48.584 33.4961 -46.875 L 33.4961 -23.6328 C 33.4961 -21.875 34.5215 -20.752 36.5234 -20.752 Z M 54.4434 -20.752 L 58.5449 -20.752 C 60.5469 -20.752 61.5723 -21.875 61.5723 -23.6328 L 61.5723 -46.875 C 61.5723 -48.584 60.5469 -49.7559 58.5449 -49.7559 L 54.4434 -49.7559 C 52.4414 -49.7559 51.3672 -48.584 51.3672 -46.875 L 51.3672 -23.6328 C 51.3672 -21.875 52.4414 -20.752 54.4434 -20.752 Z"/>
  </g>
  <g id="Semibold-S" transform="matrix(1 0 0 1 1996.2 696)">
   <path d="M 47.0703 4.98047 C 69.0918 4.98047 87.3047 -13.1836 87.3047 -35.2539 C 87.3047 -57.2754 69.0918 -75.4883 47.0215 -75.4883 C 25 -75.4883 6.83594 -57.2754 6.83594 -35.2539 C 6.83594 -13.1836 25.0488 4.98047 47.0703 4.98047 Z M 47.0703 -4.58984 C 30.0781 -4.58984 16.4551 -18.2129 16.4551 -35.2539 C 16.4551 -52.2461 30.0293 -65.8691 47.0215 -65.8691 C 64.0625 -65.8691 77.6855 -52.2461 77.7344 -35.2539 C 77.7344 -18.2129 64.0625 -4.58984 47.0703 -4.58984 Z M 36.2305 -20.752 L 40.1855 -20.752 C 42.1387 -20.752 43.1152 -21.8262 43.1152 -23.4863 L 43.1152 -47.0215 C 43.1152 -48.6816 42.1387 -49.7559 40.1855 -49.7559 L 36.2305 -49.7559 C 34.2773 -49.7559 33.3008 -48.6816 33.3008 -47.0215 L 33.3008 -23.4863 C 33.3008 -21.8262 34.2773 -20.752 36.2305 -20.752 Z M 54.0039 -20.752 L 57.9102 -20.752 C 59.8633 -20.752 60.8398 -21.8262 60.8398 -23.4863 L 60.8398 -47.0215 C 60.8398 -48.6816 59.8633 -49.7559 57.9102 -49.7559 L 54.0039 -49.7559 C 52.0508 -49.7559 51.0254 -48.6816 51.0254 -47.0215 L 51.0254 -23.4863 C 51.0254 -21.8262 52.0508 -20.752 54.0039 -20.752 Z"/>
  </g>
  <g id="Medium-S" transform="matrix(1 0 0 1 1699.83 696)">
   <path d="M 46.7285 4.63867 C 68.5547 4.63867 86.6211 -13.4277 86.6211 -35.2539 C 86.6211 -57.0312 68.5059 -75.1465 46.6797 -75.1465 C 24.8535 -75.1465 6.83594 -57.0312 6.83594 -35.2539 C 6.83594 -13.4277 24.9023 4.63867 46.7285 4.63867 Z M 46.7285 -4.00391 C 29.3945 -4.00391 15.5273 -17.9199 15.5273 -35.2539 C 15.5273 -52.5879 29.3457 -66.4551 46.6797 -66.4551 C 64.0137 -66.4551 77.8809 -52.5879 77.9297 -35.2539 C 77.9785 -17.9199 64.0625 -4.00391 46.7285 -4.00391 Z M 36.0352 -20.752 L 39.7949 -20.752 C 41.6992 -20.752 42.627 -21.8262 42.627 -23.3887 L 42.627 -47.1191 C 42.627 -48.6816 41.6992 -49.7559 39.7949 -49.7559 L 36.0352 -49.7559 C 34.082 -49.7559 33.1055 -48.6816 33.1055 -47.1191 L 33.1055 -23.3887 C 33.1055 -21.8262 34.082 -20.752 36.0352 -20.752 Z M 53.6621 -20.752 L 57.4219 -20.752 C 59.3262 -20.752 60.2539 -21.8262 60.2539 -23.3887 L 60.2539 -47.1191 C 60.2539 -48.6816 59.3262 -49.7559 57.4219 -49.7559 L 53.6621 -49.7559 C 51.709 -49.7559 50.7812 -48.6816 50.7812 -47.1191 L 50.7812 -23.3887 C 50.7812 -21.8262 51.709 -20.752 53.6621 -20.752 Z"/>
  </g>
  <g id="Regular-S" transform="matrix(1 0 0 1 1403.58 696)">
   <path d="M 46.2402 4.15039 C 67.7734 4.15039 85.6934 -13.7207 85.6934 -35.2539 C 85.6934 -56.7871 67.7246 -74.6582 46.1914 -74.6582 C 24.707 -74.6582 6.83594 -56.7871 6.83594 -35.2539 C 6.83594 -13.7207 24.7559 4.15039 46.2402 4.15039 Z M 46.2402 -3.27148 C 28.5156 -3.27148 14.3555 -17.4805 14.3555 -35.2539 C 14.3555 -53.0273 28.4668 -67.2363 46.1914 -67.2363 C 63.9648 -67.2363 78.1738 -53.0273 78.2227 -35.2539 C 78.2715 -17.4805 64.0137 -3.27148 46.2402 -3.27148 Z M 35.7422 -20.752 L 39.3066 -20.752 C 41.2109 -20.752 42.041 -21.7773 42.041 -23.2422 L 42.041 -47.2656 C 42.041 -48.7793 41.2109 -49.7559 39.3066 -49.7559 L 35.7422 -49.7559 C 33.7891 -49.7559 32.9102 -48.7793 32.9102 -47.2656 L 32.9102 -23.2422 C 32.9102 -21.7773 33.7891 -20.752 35.7422 -20.752 Z M 53.2227 -20.752 L 56.7871 -20.752 C 58.6914 -20.752 59.5215 -21.7773 59.5215 -23.2422 L 59.5215 -47.2656 C 59.5215 -48.7793 58.6914 -49.7559 56.7871 -49.7559 L 53.2227 -49.7559 C 51.3184 -49.7559 50.3906 -48.7793 50.3906 -47.2656 L 50.3906 -23.2422 C 50.3906 -21.7773 51.3184 -20.752 53.2227 -20.752 Z"/>
  </g>
  <g id="Light-S" transform="matrix(1 0 0 1 1107.6 696)">
   <path d="M 45.5078 3.4668 C 66.6992 3.4668 84.2285 -14.0625 84.2285 -35.2051 C 84.2285 -56.3965 66.6504 -73.9258 45.5078 -73.9258 C 24.3164 -73.9258 6.83594 -56.3965 6.83594 -35.2051 C 6.83594 -14.0625 24.3652 3.4668 45.5078 3.4668 Z M 45.5078 -2.24609 C 27.2461 -2.24609 12.5977 -16.9434 12.5977 -35.2051 C 12.5977 -53.5156 27.1973 -68.2129 45.5078 -68.2129 C 63.7695 -68.2129 78.4668 -53.5156 78.5156 -35.2051 C 78.5156 -16.9434 63.8184 -2.24609 45.5078 -2.24609 Z M 35.0586 -20.752 L 38.7695 -20.752 C 40.5273 -20.752 41.3574 -21.7285 41.3574 -23.0957 L 41.3574 -47.2656 C 41.3574 -48.6816 40.5273 -49.6094 38.7695 -49.6094 L 35.0586 -49.6094 C 33.3008 -49.6094 32.4707 -48.6816 32.4707 -47.2656 L 32.4707 -23.0957 C 32.4707 -21.7285 33.3008 -20.752 35.0586 -20.752 Z M 52.2461 -20.752 L 55.957 -20.752 C 57.7148 -20.752 58.5449 -21.7285 58.5449 -23.0957 L 58.5449 -47.2656 C 58.5449 -48.6816 57.7148 -49.6094 55.957 -49.6094 L 52.2461 -49.6094 C 50.5371 -49.6094 49.6582 -48.6816 49.6582 -47.2656 L 49.6582 -23.0957 C 49.6582 -21.7285 50.5371 -20.752 52.2461 -20.752 Z"/>
  </g>
  <g id="Thin-S" transform="matrix(1 0 0 1 811.867 696)">
   <path d="M 44.5801 2.53906 C 65.2832 2.53906 82.2754 -14.4531 82.2754 -35.2051 C 82.2754 -55.9082 65.2344 -72.9004 44.5312 -72.9004 C 23.8281 -72.9004 6.83594 -55.9082 6.83594 -35.2051 C 6.83594 -14.4531 23.877 2.53906 44.5801 2.53906 Z M 44.5801 -0.878906 C 25.5859 -0.878906 10.2539 -16.2109 10.2539 -35.2051 C 10.2539 -54.1504 25.5859 -69.4824 44.5312 -69.4824 C 63.5254 -69.4824 78.8574 -54.1504 78.8574 -35.2051 C 78.8574 -16.2109 63.5254 -0.878906 44.5801 -0.878906 Z M 34.2285 -20.752 L 38.0371 -20.752 C 39.6484 -20.752 40.3809 -21.6309 40.3809 -22.9492 L 40.3809 -47.2656 C 40.3809 -48.584 39.6484 -49.4629 38.0371 -49.4629 L 34.2285 -49.4629 C 32.666 -49.4629 31.8848 -48.584 31.8848 -47.2656 L 31.8848 -22.9492 C 31.8848 -21.6309 32.666 -20.752 34.2285 -20.752 Z M 51.0254 -20.752 L 54.834 -20.752 C 56.4453 -20.752 57.1777 -21.6309 57.1777 -22.9492 L 57.1777 -47.2656 C 57.1777 -48.584 56.4453 -49.4629 54.834 -49.4629 L 51.0254 -49.4629 C 49.4629 -49.4629 48.7305 -48.584 48.7305 -47.2656 L 48.7305 -22.9492 C 48.7305 -21.6309 49.4629 -20.752 51.0254 -20.752 Z"/>
  </g>
  <g id="Ultralight-S" transform="matrix(1 0 0 1 515.644 696)">
   <path d="M 44.043 2.05078 C 64.502 2.05078 81.2988 -14.6973 81.2988 -35.1562 C 81.2988 -55.6152 64.502 -72.3633 44.043 -72.3633 C 23.584 -72.3633 6.83594 -55.6152 6.83594 -35.1562 C 6.83594 -14.6973 23.584 2.05078 44.043 2.05078 Z M 44.043 -0.146484 C 24.7559 -0.146484 9.08203 -15.8691 9.08203 -35.1562 C 9.08203 -54.4434 24.7559 -70.166 44.043 -70.166 C 63.3789 -70.166 79.0527 -54.4434 79.0527 -35.1562 C 79.0527 -15.8691 63.3789 -0.146484 44.043 -0.146484 Z M 33.7891 -20.752 L 37.6953 -20.752 C 39.209 -20.752 39.8926 -21.582 39.8926 -22.8027 L 39.8926 -47.2656 C 39.8926 -48.4863 39.209 -49.3164 37.6953 -49.3164 L 33.7891 -49.3164 C 32.3242 -49.3164 31.543 -48.4863 31.543 -47.2656 L 31.543 -22.8027 C 31.543 -21.582 32.3242 -20.752 33.7891 -20.752 Z M 50.3906 -20.752 L 54.2969 -20.752 C 55.7617 -20.752 56.4941 -21.582 56.4941 -22.8027 L 56.4941 -47.2656 C 56.4941 -48.4863 55.7617 -49.3164 54.2969 -49.3164 L 50.3906 -49.3164 C 48.9258 -49.3164 48.1934 -48.4863 48.1934 -47.2656 L 48.1934 -22.8027 C 48.1934 -21.582 48.9258 -20.752 50.3906 -20.752 Z"/>
  </g>
 </g>
</svg>
